<svg width="20" height="20" viewBox="0 0 20 20" fill="none" xmlns="http://www.w3.org/2000/svg">
<path d="M13 1C13 0.447715 12.5523 0 12 0H8C7.44772 0 7 0.447715 7 1V5.99609C7 6.54838 6.55228 6.99609 6 6.99609H1C0.447715 6.99609 0 7.44381 0 7.99609V12.0039C0 12.5562 0.447715 13.0039 1 13.0039H6C6.55228 13.0039 7 13.4516 7 14.0039V19C7 19.5523 7.44772 20 8 20H12C12.5523 20 13 19.5523 13 19V14.0039C13 13.4516 13.4477 13.0039 14 13.0039H19C19.5523 13.0039 20 12.5562 20 12.0039V7.99609C20 7.44381 19.5523 6.99609 19 6.99609H14C13.4477 6.99609 13 6.54838 13 5.99609V1Z" fill="#323030"/>
</svg>
