<svg width="30" height="30" viewBox="0 0 30 30" fill="none" xmlns="http://www.w3.org/2000/svg">
<path d="M3.75 10L13.6125 16.575C14.0233 16.8491 14.5061 16.9954 15 16.9954C15.4939 16.9954 15.9767 16.8491 16.3875 16.575L26.25 10H3.75ZM6.25 23.75H23.75C24.413 23.75 25.0489 23.4866 25.5178 23.0178C25.9866 22.5489 26.25 21.913 26.25 21.25V8.75C26.25 8.08696 25.9866 7.45107 25.5178 6.98223C25.0489 6.51339 24.413 6.25 23.75 6.25H6.25C5.58696 6.25 4.95107 6.51339 4.48223 6.98223C4.01339 7.45107 3.75 8.08696 3.75 8.75V21.25C3.75 21.913 4.01339 22.5489 4.48223 23.0178C4.95107 23.4866 5.58696 23.75 6.25 23.75Z" stroke="#323030" stroke-width="2" stroke-linecap="round" stroke-linejoin="round"/>
</svg>
